# xmcd CD database file
#
# Track frame offsets:
#	150
#	21558
#	35207
#	54520
#	70824
#	87620
#	102742
#	129694
#	149395
#	179421
#
# Disc length: 2571 seconds
#
# Revision: 0
# Processed by: cddbd v1.5.2PL0 Copyright (c) Steve Scherf et al.
# Submitted via: CDex 1.70beta2
#
DISCID=a00a090a
DTITLE=LITTLE G. WEEVIL - Southern Experience
DYEAR=2009
DGENRE=Blues
TTITLE0=Hey Jody
TTITLE1=The Woman I Ain't Never Seen
TTITLE2=Going Back South
TTITLE3=Place A Dollar In My Hand
TTITLE4=Anson And Sam
TTITLE5=Weird Dancing Woman
TTITLE6=Chocolate Pie
TTITLE7=Glad To Have You Back
TTITLE8=Nobody Loves The Blues But Me
TTITLE9=She's The One
EXTD=YEAR: 2009
EXTT0=
EXTT1=
EXTT2=
EXTT3=
EXTT4=
EXTT5=
EXTT6=
EXTT7=
EXTT8=
EXTT9=
PLAYORDER=
